<svg preserveAspectRatio="none" width="100%" height="100%" overflow="visible" style="display: block;" viewBox="0 0 183 37" fill="none" xmlns="http://www.w3.org/2000/svg">
<g id="Camada_1" clip-path="url(#clip0_0_32)">
<path id="Vector" fill-rule="evenodd" clip-rule="evenodd" d="M74.3072 26.0516L72.3717 33.2534C72.2312 33.7855 71.8027 34.2738 70.8999 34.2738H69.7126L71.9326 26.037C72.0766 25.5195 72.4911 25.0494 73.3939 25.0494C74.3002 25.0494 74.4442 25.5195 74.3037 26.0516M74.1351 22.3451C72.9337 22.3451 73.3904 22.3451 72.9337 22.3451L74.0367 18.2704H68.3356L66.2175 26.0589L64.3698 32.929L63.2774 36.9891H70.1763C74.6163 36.9891 77.4546 35.5166 78.1536 32.929L79.8818 26.5546C80.5914 23.8867 77.7777 22.3414 74.1316 22.3414L74.1351 22.3451Z" fill="var(--fill-0, white)"/>
<path id="Vector_2" fill-rule="evenodd" clip-rule="evenodd" d="M34.8528 22.3523H27.9574C26.9352 26.1318 26.0289 29.4666 25.0138 33.2388L25.0068 33.2606C24.385 35.8629 27.2935 36.9891 30.894 36.9891H36.2965L37.0377 34.2702H31.6317C30.9607 34.2702 30.5498 33.9823 30.7324 33.2862C31.442 30.9135 39.2717 31.3982 40.2834 27.7136L40.5679 26.6603C41.3969 23.5733 38.4919 22.3487 34.8493 22.3487M35.0811 25.9022L34.6877 27.3746L34.5577 27.8739C34.2381 29.022 32.8892 29.3427 31.6282 29.893L32.3061 27.3892V27.3746L32.9243 25.0457H34.1222C34.916 25.0457 35.2322 25.3519 35.0776 25.9022H35.0811Z" fill="var(--fill-0, white)"/>
<path id="Vector_3" fill-rule="evenodd" clip-rule="evenodd" d="M54.2428 23.0922C53.1995 22.7059 51.9279 22.3378 50.4491 22.3378C46.0091 22.3378 43.1884 23.7045 42.4858 26.2922L42.4437 26.4379L39.5914 36.9927H45.303L48.2993 25.8949C48.3099 25.8475 48.3169 25.7965 48.345 25.7491C48.5277 25.279 48.9984 25.0384 49.729 25.0384C50.5088 25.0384 50.8214 25.33 50.6809 25.8803C49.6658 29.6379 48.6998 33.2351 47.6881 36.9927H53.3892L56.389 25.8876C56.5787 25.2061 57.1829 25.0311 57.8011 25.0311C58.595 25.0311 58.9357 25.3227 58.7812 25.873C57.7765 29.6233 56.793 33.2278 55.7743 36.9927H61.4613C62.4238 33.421 63.3863 29.8639 64.3488 26.2922C65.1778 23.2052 62.199 22.3378 58.5528 22.3378C56.9616 22.3378 55.416 22.735 54.2428 23.0922Z" fill="var(--fill-0, white)"/>
<path id="Vector_4" fill-rule="evenodd" clip-rule="evenodd" d="M89.0113 25.0311C88.2947 25.0311 87.8275 25.2899 87.6484 25.7564C87.6238 25.8074 87.6097 25.8402 87.5992 25.8876L84.6169 36.9927H78.9018C79.8502 33.4866 80.7951 29.9769 81.7471 26.4707C82.4461 23.8685 85.3054 22.3378 89.7454 22.3378H93.4689L92.7382 25.0494L89.0113 25.0311Z" fill="var(--fill-0, white)"/>
<path id="Vector_5" fill-rule="evenodd" clip-rule="evenodd" d="M120.123 23.0922C119.08 22.7059 117.808 22.3378 116.329 22.3378C111.889 22.3378 109.069 23.7045 108.366 26.2922L108.328 26.4379L105.475 36.9927H111.187L114.183 25.8949C114.194 25.8475 114.201 25.7965 114.229 25.7491C114.411 25.279 114.882 25.0384 115.613 25.0384C116.393 25.0384 116.705 25.33 116.565 25.8803C115.55 29.6379 114.584 33.2351 113.572 36.9927H119.273L122.269 25.8876C122.459 25.2061 123.063 25.0311 123.681 25.0311C124.475 25.0311 124.816 25.3227 124.661 25.873C123.657 29.6233 122.673 33.2278 121.655 36.9927H127.342C128.304 33.421 129.267 29.8639 130.229 26.2922C131.058 23.2052 128.079 22.3378 124.433 22.3378C122.842 22.3378 121.3 22.735 120.123 23.0922Z" fill="var(--fill-0, white)"/>
<path id="Vector_6" fill-rule="evenodd" clip-rule="evenodd" d="M161.415 26.2448C162.117 23.6571 160.076 22.3232 155.622 22.3232C151.182 22.3232 148.326 23.6608 147.627 26.2448L145.727 33.3226C145.007 35.9904 147.922 36.9745 151.569 36.9745C155.215 36.9745 158.513 36.9745 159.514 33.3226L159.974 31.6096H154.273L153.841 33.2096C153.701 33.7417 153.272 34.2265 152.369 34.2265C151.467 34.2265 151.316 33.7417 151.46 33.2096L153.402 26.0188C153.543 25.4831 153.957 25.0165 154.86 25.0165C155.763 25.0165 155.928 25.4831 155.787 26.0188L155.31 27.75H161.011L161.415 26.2484V26.2448Z" fill="var(--fill-0, white)"/>
<path id="Vector_7" fill-rule="evenodd" clip-rule="evenodd" d="M171.215 22.3451H171.197H171.18C166.775 22.3669 163.933 23.7008 163.238 26.2666L161.341 33.3445C160.638 35.8374 163.554 37 167.225 37H167.239H167.253C170.923 37 174.464 35.841 175.111 33.3445L177.039 26.2666C177.727 23.7008 175.609 22.3669 171.215 22.3451ZM167.973 34.2775C167.116 34.2556 166.958 33.7818 167.098 33.2606L169.041 26.0662C169.178 25.5377 169.585 25.0785 170.463 25.0639C171.334 25.0785 171.489 25.5414 171.341 26.0662L169.395 33.2606C169.255 33.7818 168.84 34.2556 167.973 34.2775Z" fill="var(--fill-0, white)"/>
<path id="Vector_8" fill-rule="evenodd" clip-rule="evenodd" d="M32.8822 0.00738079C26.447 -0.0800897 18.2835 0.637897 11.6621 3.57545C6.2596 5.97359 1.77391 9.58539 0.309121 14.9648C-1.95304 23.1798 8.44448 29.8931 23.549 29.8931L25.5934 22.3451C13.3341 22.3451 4.79481 17.4577 6.44577 11.3895C7.21153 8.63415 9.6388 6.46926 12.045 5.11711C23.3172 -1.0204 45.8475 0.455667 48.77 6.3745C51.5977 13.6819 32.8681 16.2003 27.4059 16.2003C19.0141 16.2186 9.08028 14.2651 11.1001 7.8615C4.99855 13.4341 9.95845 20.3115 26.1308 20.3115C36.9499 20.3115 50.7793 16.973 52.6059 10.2742C54.0777 4.75994 45.57 0.317172 32.8822 0.00738079Z" fill="var(--fill-0, #034991)"/>
<path id="Vector_9" fill-rule="evenodd" clip-rule="evenodd" d="M57.7941 14.6695C57.2953 14.6586 57.204 14.3852 57.2848 14.09L58.4158 9.97528C58.4966 9.67277 58.7285 9.4213 59.2413 9.41401C59.7471 9.4213 59.842 9.67642 59.7577 9.97528L59.561 10.6896H62.9086L63.0737 10.0919C63.4741 8.62677 62.2412 7.86141 59.6839 7.85047H59.6734H59.6628C57.0951 7.86141 55.4441 8.62677 55.0366 10.0919L53.9302 14.1411C53.5227 15.5661 55.2193 16.2331 57.355 16.2331H57.3726C59.5083 16.2331 61.5737 15.5697 61.9496 14.1447L62.2903 12.9092L62.5292 12.0381H58.5142L58.2753 12.9092H58.9463L58.6196 14.0973C58.5353 14.3962 58.2964 14.6659 57.7906 14.6768" fill="var(--fill-0, white)"/>
<path id="Vector_10" fill-rule="evenodd" clip-rule="evenodd" d="M68.0055 9.39214C67.5945 9.39214 67.3275 9.53792 67.2256 9.80762C67.2116 9.83678 67.2046 9.855 67.1975 9.88052L65.4904 16.2331H62.2201C62.761 14.2249 63.302 12.2204 63.8464 10.2158C64.2469 8.72882 65.8803 7.85412 68.42 7.85412H70.5486L70.1306 9.40307L67.9984 9.39214H68.0055Z" fill="var(--fill-0, white)"/>
<path id="Vector_11" fill-rule="evenodd" clip-rule="evenodd" d="M74.6163 7.85776L72.8811 14.1083C72.7932 14.4108 72.8846 14.6732 73.3974 14.6841C73.9138 14.6768 74.1526 14.4108 74.2334 14.1083L75.9687 7.85776H79.3409L77.6442 13.9916C77.2333 15.4604 75.5647 16.2221 72.9759 16.2331H72.9654H72.9548C70.373 16.2221 69.126 15.4568 69.5335 13.9916L71.2441 7.85776H74.6163Z" fill="var(--fill-0, white)"/>
<path id="Vector_12" fill-rule="evenodd" clip-rule="evenodd" d="M82.0913 16.2331C81.87 16.2331 81.6663 16.2331 81.4063 16.2331L80.8443 18.274H77.5845L78.7121 14.1083L79.78 10.1794L80.4122 7.85776H84.357C86.8966 7.85776 88.0664 8.69967 87.6659 10.1794L86.6086 14.1083C86.1906 15.6317 84.1813 16.2331 82.0948 16.2331M83.3348 14.1119L84.4553 9.9935C84.5396 9.68735 84.4448 9.41036 83.9284 9.41036H83.2505L81.9754 14.1228C81.8981 14.418 81.9894 14.6877 82.5058 14.6877C83.0222 14.6877 83.2505 14.418 83.3348 14.1155V14.1119Z" fill="var(--fill-0, white)"/>
<path id="Vector_13" fill-rule="evenodd" clip-rule="evenodd" d="M93.4267 7.85776H93.4162H93.4056C90.8835 7.87234 89.2607 8.63406 88.8637 10.0992L87.7783 14.1483C87.3779 15.5734 89.0464 16.2367 91.1435 16.2367H91.154H91.1645C93.2616 16.2367 95.2884 15.5734 95.6608 14.1483L96.7638 10.0992C97.1572 8.63042 95.9453 7.8687 93.4337 7.85776M91.572 14.6841C91.0802 14.6732 90.9924 14.3998 91.0732 14.1046L92.1832 9.98985C92.2605 9.68735 92.4958 9.42494 92.9982 9.41765C93.497 9.42494 93.5848 9.691 93.5005 9.9935L92.387 14.1083C92.3062 14.4071 92.0708 14.6768 91.572 14.6877V14.6841Z" fill="var(--fill-0, white)"/>
<path id="Vector_14" fill-rule="evenodd" clip-rule="evenodd" d="M180.552 25.2534H180.949V24.4006L181.296 24.4407L181.637 25.2534H182.083L181.69 24.4115C181.714 24.4043 181.739 24.3933 181.767 24.3824C181.795 24.3678 181.823 24.3496 181.855 24.3241C181.883 24.2986 181.911 24.2621 181.936 24.2184C181.96 24.1746 181.981 24.1163 181.995 24.0434C182.009 23.9705 182.016 23.8831 182.02 23.7774C182.02 23.6498 182.006 23.5441 181.978 23.4567C181.95 23.3692 181.911 23.2999 181.858 23.2526C181.806 23.2015 181.746 23.1651 181.679 23.1432C181.609 23.1214 181.535 23.1104 181.454 23.1104H180.552V25.2571V25.2534ZM182.312 23.0667C182.038 22.7824 181.655 22.6038 181.237 22.6038C180.819 22.6038 180.436 22.7788 180.162 23.0667C179.888 23.351 179.716 23.7446 179.716 24.1819C179.716 24.6193 179.884 25.0129 180.162 25.2972C180.436 25.5815 180.819 25.76 181.237 25.76C181.655 25.76 182.038 25.5851 182.312 25.2972C182.586 25.0129 182.758 24.6193 182.758 24.1819C182.758 23.7446 182.589 23.351 182.312 23.0667ZM181.237 22.3487C181.725 22.3487 182.164 22.5528 182.484 22.8845C182.803 23.2161 183 23.6753 183 24.1783C183 24.6812 182.803 25.1405 182.484 25.4721C182.164 25.8038 181.721 26.0079 181.237 26.0079C180.752 26.0079 180.309 25.8038 179.99 25.4721C179.67 25.1405 179.473 24.6812 179.473 24.1783C179.473 23.6717 179.67 23.2161 179.99 22.8845C180.309 22.5528 180.752 22.3487 181.237 22.3487ZM180.952 24.0762V23.4712H181.423C181.465 23.4712 181.5 23.4785 181.532 23.4967C181.563 23.515 181.584 23.5441 181.602 23.5879C181.62 23.6316 181.627 23.6936 181.627 23.7737C181.627 23.8393 181.623 23.8904 181.613 23.9305C181.605 23.9705 181.591 23.9997 181.574 24.0216C181.556 24.0434 181.535 24.058 181.511 24.0653C181.486 24.0726 181.454 24.0762 181.423 24.0762H180.952Z" fill="var(--fill-0, white)"/>
<path id="Vector_15" fill-rule="evenodd" clip-rule="evenodd" d="M96.7427 36.9891H103.638C104.66 33.2096 105.567 29.8748 106.582 26.1026L106.589 26.0808C107.21 23.4785 104.302 22.3523 100.701 22.3523H95.299L94.5578 25.0712H99.9638C100.635 25.0712 101.046 25.3591 100.863 26.0553C100.153 28.4279 92.3237 27.9432 91.3121 31.6279L91.0276 32.6811C90.1986 35.7681 93.1036 36.9927 96.7462 36.9927M96.5144 33.4392L96.8059 32.3531L96.9359 31.8538C97.2555 30.7058 98.6044 30.385 99.8654 29.8347L99.1875 32.3386V32.3531L98.6676 34.2957H97.4698C96.6759 34.2957 96.3598 33.9896 96.5144 33.4392Z" fill="var(--fill-0, white)"/>
<path id="Vector_16" fill-rule="evenodd" clip-rule="evenodd" d="M135.997 36.9745H142.892C143.914 33.195 144.821 29.8602 145.836 26.0881L145.843 26.0662C146.465 23.4639 143.556 22.3378 139.956 22.3378H134.553L133.812 25.0566H139.218C139.889 25.0566 140.3 25.3446 140.117 26.0407C139.408 28.4133 131.578 27.9286 130.566 31.6133L130.282 32.6666C129.453 35.7535 132.358 36.9781 136 36.9781M135.769 33.4246L136.06 32.3386L136.19 31.8392C136.51 30.6912 137.859 30.3705 139.12 29.8201L138.442 32.324V32.3386L137.922 34.2811H136.724C135.93 34.2811 135.614 33.975 135.769 33.4246Z" fill="var(--fill-0, white)"/>
</g>
<defs>
<clipPath id="clip0_0_32">
<rect width="183" height="37" fill="white"/>
</clipPath>
</defs>
</svg>
