<svg preserveAspectRatio="none" width="100%" height="100%" overflow="visible" style="display: block;" viewBox="0 0 17.1573 17.1674" fill="none" xmlns="http://www.w3.org/2000/svg">
<g id="Camada_1" clip-path="url(#clip0_0_99)">
<path id="Vector" d="M8.05485 0.0162412C14.967 -0.392615 19.5244 7.19481 15.8556 13.1207C12.4543 18.6149 4.41268 18.488 1.16747 12.9064C-2.04249 7.38573 1.72925 0.389844 8.05485 0.0162412ZM6.27291 3.34707C4.56927 3.46428 3.45349 4.434 3.29691 6.16832C3.57803 9.02757 2.06668 13.59 6.33152 13.8441C8.99938 13.6015 13.4515 14.9448 13.8535 11.0453C13.5714 8.15675 15.1011 3.57233 10.7882 3.33517C9.45677 3.26191 7.59883 3.2555 6.27291 3.34661V3.34707Z" fill="var(--fill-0, white)"/>
<path id="Vector_2" d="M8.5356 4.30599L8.76315 4.33392C10.5167 4.34124 12.6869 3.9507 12.8957 6.33974C12.8023 7.81767 13.0179 9.44302 12.8897 10.9036C12.6846 13.2459 10.2873 12.87 8.56444 12.8695C7.85524 12.8695 7.02562 12.8934 6.32969 12.8494C5.08527 12.7716 4.37469 12.0857 4.25657 10.8404C4.33852 9.37206 4.15218 7.79432 4.25657 6.33929C4.43375 3.86737 6.77838 4.40076 8.5356 4.30553V4.30599ZM11.2396 5.26747C11.1064 5.2954 10.9178 5.45244 10.8651 5.57834C10.6454 6.10487 11.2131 6.59018 11.6924 6.27015C12.1993 5.93134 11.8586 5.13744 11.2396 5.26747ZM8.1913 5.81826C6.08612 6.05588 5.06192 8.66789 6.38326 10.3235C7.76367 12.0537 10.5762 11.5697 11.2323 9.44898C11.8504 7.45139 10.2466 5.58613 8.1913 5.81826Z" fill="var(--fill-0, white)"/>
<path id="Vector_3" d="M8.25953 6.8136C10.4979 6.51005 11.1545 9.53 9.23658 10.2648C7.7527 10.833 6.32376 9.38349 6.91484 7.90419C7.12819 7.37034 7.68173 6.89189 8.25953 6.8136Z" fill="var(--fill-0, white)"/>
</g>
<defs>
<clipPath id="clip0_0_99">
<rect width="17.1573" height="17.1674" fill="white"/>
</clipPath>
</defs>
</svg>
