<svg preserveAspectRatio="none" width="100%" height="100%" overflow="visible" style="display: block;" viewBox="0 0 17.5107 17.5107" fill="none" xmlns="http://www.w3.org/2000/svg">
<g id="Modo_de_isolamento" clip-path="url(#clip0_0_27)">
<path id="Vector" d="M9.30478 -2.34504e-05L10.2007 0.11231C15.2498 0.974445 18.5104 5.94451 17.233 10.9525C16.4806 13.9024 14.1113 16.3308 11.1847 17.1587V10.6986H13.0647L13.3383 8.51082H11.1847V6.75048C11.1847 6.64864 11.3391 6.34589 11.4223 6.27055C11.5013 6.19886 11.8225 6.04999 11.9193 6.04999H13.4064V4.06726L12.3995 3.9974C11.2354 3.95721 10.0983 4.04763 9.39295 5.09561C9.20655 5.37279 8.92833 6.04999 8.92833 6.37466V8.45968L8.87716 8.51082H7.04838V10.6986H8.92833V17.4495C8.78396 17.5336 8.50802 17.5089 8.32848 17.502C4.1702 17.3422 0.616331 14.0261 0.0799852 9.92458C0.0530309 9.71909 0.05897 9.49396 0.00688863 9.29715C0.0224217 8.93549 -0.0141266 8.56379 0.00688863 8.2035C0.260899 3.86269 3.86959 0.253868 8.21107 -2.34504e-05H9.30478Z" fill="var(--fill-0, white)"/>
</g>
<defs>
<clipPath id="clip0_0_27">
<rect width="17.5107" height="17.5107" fill="white"/>
</clipPath>
</defs>
</svg>
