<svg preserveAspectRatio="none" width="100%" height="100%" overflow="visible" style="display: block;" viewBox="0 0 17.1674 17.1674" fill="none" xmlns="http://www.w3.org/2000/svg">
<g id="Camada_1" clip-path="url(#clip0_0_70)">
<path id="Vector" d="M0.00624632 8.04616C0.433906 0.738579 9.44549 -2.70646 14.654 2.49987C19.8786 7.72271 16.4372 16.7397 9.12567 17.1673H8.05285C7.85967 17.1155 7.63895 17.1224 7.43751 17.0953C3.65144 16.5938 0.573858 13.5268 0.0782876 9.73496C0.0521325 9.53355 0.0580977 9.31287 0.00624632 9.11927C0.0213888 8.76462 -0.0144025 8.39989 0.00624632 8.04616ZM4.86009 3.6629C3.53122 3.82118 3.56288 5.74717 4.95186 5.83251C6.68773 5.9394 6.64552 3.45002 4.86009 3.6629ZM13.6179 12.9758V8.83436C13.6179 8.63616 13.4569 8.10121 13.3752 7.90348C12.9012 6.75605 11.6223 6.28074 10.4655 6.6542C9.95529 6.8189 9.65703 7.14648 9.32619 7.54333V6.67163H7.24755V12.9758H9.32619V9.40463C9.32619 8.59762 10.0897 7.96633 10.8776 8.25537C11.2488 8.39163 11.5388 8.88849 11.5388 9.27067V12.9763H13.6175L13.6179 12.9758ZM6.10819 12.9758V6.72164L6.05772 6.67117H4.04607L3.99559 6.72164V12.9758H6.10773H6.10819Z" fill="var(--fill-0, white)"/>
</g>
<defs>
<clipPath id="clip0_0_70">
<rect width="17.1674" height="17.1674" fill="white"/>
</clipPath>
</defs>
</svg>
