<svg preserveAspectRatio="none" width="100%" height="100%" overflow="visible" style="display: block;" viewBox="0 0 17.1674 17.1674" fill="none" xmlns="http://www.w3.org/2000/svg">
<g id="Camada_1" clip-path="url(#clip0_0_29)">
<path id="Vector" d="M9.12287 4.90023e-06L10.0015 0.110346C13.6684 0.709666 16.6132 3.74198 17.0953 7.43176C17.1219 7.63322 17.1159 7.8539 17.1672 8.04711V9.11984C17.1155 9.31305 17.1219 9.53373 17.0953 9.73519C16.6055 13.4318 13.6752 16.449 10.0015 17.0566L9.12287 17.1669H8.05014C7.85693 17.1152 7.63624 17.1216 7.43479 17.0951C3.65069 16.5937 0.57351 13.5271 0.0781207 9.73564C0.0515656 9.53419 0.0575176 9.31351 0.00623886 9.1203C0.0213478 8.76547 -0.0143642 8.40102 0.00623886 8.04757C0.255307 3.7896 3.79492 0.249073 8.0506 4.90023e-06H9.12333H9.12287ZM7.27272 4.83806C6.49163 4.85684 5.62447 4.8692 4.85391 4.96672C3.58934 5.12651 3.40254 5.80549 3.29128 6.95743C3.17957 8.11304 3.16629 9.66376 3.36774 10.8033C3.61269 12.1883 4.51969 12.1947 5.72107 12.2712C7.47371 12.3829 9.30143 12.3628 11.0504 12.2717C12.0627 12.219 13.4115 12.3655 13.7384 11.138C14.0378 10.0136 14.0099 7.75821 13.8446 6.59207C13.6244 5.03997 12.8758 4.98595 11.4858 4.89484C10.1123 4.80464 8.65175 4.80418 7.27272 4.83715V4.83806Z" fill="var(--fill-0, white)"/>
<path id="Vector_2" d="M7.51459 6.97433L10.2965 8.56718L7.51459 10.193V6.97433Z" fill="var(--fill-0, white)"/>
</g>
<defs>
<clipPath id="clip0_0_29">
<rect width="17.1674" height="17.1674" fill="white"/>
</clipPath>
</defs>
</svg>
