<svg width="183" height="37" viewBox="0 0 183 37" fill="none" xmlns="http://www.w3.org/2000/svg">
<g clip-path="url(#clip0_7979_317)">
<path fill-rule="evenodd" clip-rule="evenodd" d="M74.3072 26.0516L72.3717 33.2533C72.2312 33.7855 71.8026 34.2738 70.8999 34.2738H69.7126L71.9326 26.037C72.0766 25.5195 72.4911 25.0493 73.3939 25.0493C74.3001 25.0493 74.4441 25.5195 74.3036 26.0516M74.135 22.3451C72.9337 22.3451 73.3903 22.3451 72.9337 22.3451L74.0367 18.2704H68.3356L66.2175 26.0589L64.3698 32.929L63.2773 36.9891H70.1762C74.6163 36.9891 77.4545 35.5166 78.1535 32.929L79.8818 26.5546C80.5913 23.8867 77.7777 22.3414 74.1315 22.3414L74.135 22.3451Z" fill="white"/>
<path fill-rule="evenodd" clip-rule="evenodd" d="M34.8531 22.3523H27.9577C26.9355 26.1318 26.0292 29.4666 25.0141 33.2388L25.007 33.2606C24.3853 35.8629 27.2938 36.9891 30.8943 36.9891H36.2968L37.038 34.2702H31.6319C30.961 34.2702 30.55 33.9823 30.7327 33.2861C31.4423 30.9135 39.272 31.3982 40.2837 27.7135L40.5682 26.6603C41.3972 23.5733 38.4922 22.3487 34.8496 22.3487M35.0814 25.9022L34.688 27.3746L34.558 27.8739C34.2383 29.022 32.8895 29.3427 31.6284 29.893L32.3064 27.3892V27.3746L32.9246 25.0457H34.1224C34.9163 25.0457 35.2324 25.3518 35.0779 25.9022H35.0814Z" fill="white"/>
<path fill-rule="evenodd" clip-rule="evenodd" d="M54.2432 23.0922C53.1999 22.7059 51.9283 22.3378 50.4495 22.3378C46.0095 22.3378 43.1888 23.7045 42.4862 26.2922L42.4441 26.4379L39.5918 36.9927H45.3034L48.2997 25.8949C48.3103 25.8475 48.3173 25.7965 48.3454 25.7491C48.5281 25.279 48.9988 25.0384 49.7294 25.0384C50.5092 25.0384 50.8218 25.33 50.6813 25.8803C49.6662 29.6379 48.7002 33.2351 47.6885 36.9927H53.3896L56.3894 25.8876C56.5791 25.2061 57.1833 25.0311 57.8015 25.0311C58.5954 25.0311 58.9361 25.3227 58.7816 25.873C57.7769 29.6233 56.7934 33.2278 55.7747 36.9927H61.4617C62.4242 33.421 63.3867 29.8639 64.3492 26.2922C65.1781 23.2052 62.1994 22.3378 58.5532 22.3378C56.962 22.3378 55.4164 22.735 54.2432 23.0922Z" fill="white"/>
<path fill-rule="evenodd" clip-rule="evenodd" d="M89.0109 25.0311C88.2943 25.0311 87.8271 25.2899 87.6479 25.7564C87.6234 25.8074 87.6093 25.8402 87.5988 25.8876L84.6165 36.9927H78.9014C79.8498 33.4866 80.7947 29.9769 81.7466 26.4707C82.4457 23.8685 85.305 22.3378 89.745 22.3378H93.4684L92.7378 25.0494L89.0109 25.0311Z" fill="white"/>
<path fill-rule="evenodd" clip-rule="evenodd" d="M120.123 23.0922C119.08 22.7059 117.809 22.3378 116.33 22.3378C111.89 22.3378 109.069 23.7045 108.367 26.2922L108.328 26.4379L105.476 36.9927H111.187L114.184 25.8949C114.194 25.8475 114.201 25.7965 114.229 25.7491C114.412 25.279 114.883 25.0384 115.613 25.0384C116.393 25.0384 116.706 25.33 116.565 25.8803C115.55 29.6379 114.584 33.2351 113.572 36.9927H119.273L122.27 25.8876C122.459 25.2061 123.064 25.0311 123.682 25.0311C124.476 25.0311 124.816 25.3227 124.662 25.873C123.657 29.6233 122.674 33.2278 121.655 36.9927H127.342C128.304 33.421 129.267 29.8639 130.229 26.2922C131.058 23.2052 128.08 22.3378 124.434 22.3378C122.842 22.3378 121.3 22.735 120.123 23.0922Z" fill="white"/>
<path fill-rule="evenodd" clip-rule="evenodd" d="M161.415 26.2448C162.117 23.6571 160.076 22.3232 155.622 22.3232C151.182 22.3232 148.327 23.6608 147.628 26.2448L145.727 33.3226C145.007 35.9904 147.923 36.9745 151.569 36.9745C155.215 36.9745 158.513 36.9745 159.514 33.3226L159.975 31.6096H154.274L153.841 33.2096C153.701 33.7417 153.272 34.2265 152.37 34.2265C151.467 34.2265 151.316 33.7417 151.46 33.2096L153.402 26.0188C153.543 25.4831 153.957 25.0165 154.86 25.0165C155.763 25.0165 155.928 25.4831 155.787 26.0188L155.31 27.75H161.011L161.415 26.2484V26.2448Z" fill="white"/>
<path fill-rule="evenodd" clip-rule="evenodd" d="M171.215 22.345H171.197H171.179C166.775 22.3669 163.933 23.7008 163.237 26.2666L161.34 33.3444C160.638 35.8373 163.553 37 167.224 37H167.238H167.252C170.923 37 174.464 35.841 175.11 33.3444L177.039 26.2666C177.727 23.7008 175.609 22.3669 171.215 22.345ZM167.972 34.2775C167.115 34.2556 166.957 33.7818 167.098 33.2606L169.04 26.0662C169.177 25.5377 169.585 25.0785 170.463 25.0639C171.334 25.0785 171.489 25.5413 171.341 26.0662L169.395 33.2606C169.255 33.7818 168.84 34.2556 167.972 34.2775Z" fill="white"/>
<path fill-rule="evenodd" clip-rule="evenodd" d="M32.8822 0.00740098C26.4469 -0.0800695 18.2835 0.637917 11.6621 3.57547C6.25957 5.97361 1.77388 9.58541 0.309095 14.9648C-1.95307 23.1798 8.44446 29.8931 23.549 29.8931L25.5934 22.3452C13.3341 22.3452 4.79479 17.4578 6.44574 11.3895C7.21151 8.63417 9.63877 6.46928 12.045 5.11713C23.3171 -1.02038 45.8475 0.455687 48.77 6.37452C51.5977 13.6819 32.8681 16.2004 27.4059 16.2004C19.0141 16.2186 9.08025 14.2651 11.1 7.86152C4.99852 13.4341 9.95842 20.3115 26.1308 20.3115C36.9498 20.3115 50.7793 16.973 52.6059 10.2742C54.0777 4.75996 45.57 0.317192 32.8822 0.00740098Z" fill="white"/>
<path fill-rule="evenodd" clip-rule="evenodd" d="M57.7939 14.6695C57.2951 14.6586 57.2037 14.3852 57.2845 14.09L58.4156 9.97527C58.4964 9.67276 58.7282 9.42129 59.2411 9.414C59.7469 9.42129 59.8418 9.67641 59.7575 9.97527L59.5608 10.6896H62.9083L63.0734 10.0919C63.4739 8.62676 62.2409 7.8614 59.6837 7.85046H59.6732H59.6626C57.0949 7.8614 55.4439 8.62676 55.0364 10.0919L53.9299 14.141C53.5225 15.5661 55.2191 16.233 57.3548 16.233H57.3724C59.5081 16.233 61.5735 15.5697 61.9494 14.1447L62.2901 12.9092L62.529 12.0381H58.514L58.2751 12.9092H58.946L58.6194 14.0973C58.5351 14.3962 58.2962 14.6659 57.7904 14.6768" fill="white"/>
<path fill-rule="evenodd" clip-rule="evenodd" d="M68.0051 9.39215C67.5941 9.39215 67.3272 9.53793 67.2253 9.80763C67.2112 9.83679 67.2042 9.85501 67.1972 9.88053L65.49 16.2331H62.2197C62.7607 14.2249 63.3016 12.2204 63.8461 10.2158C64.2465 8.72883 65.8799 7.85413 68.4196 7.85413H70.5483L70.1303 9.40308L67.9981 9.39215H68.0051Z" fill="white"/>
<path fill-rule="evenodd" clip-rule="evenodd" d="M74.6167 7.85779L72.8815 14.1083C72.7936 14.4108 72.885 14.6732 73.3978 14.6841C73.9142 14.6768 74.1531 14.4108 74.2338 14.1083L75.9691 7.85779H79.3413L77.6447 13.9917C77.2337 15.4604 75.5652 16.2222 72.9763 16.2331H72.9658H72.9552C70.3734 16.2222 69.1264 15.4568 69.5339 13.9917L71.2446 7.85779H74.6167Z" fill="white"/>
<path fill-rule="evenodd" clip-rule="evenodd" d="M82.0917 16.2331C81.8704 16.2331 81.6667 16.2331 81.4068 16.2331L80.8447 18.2741H77.585L78.7125 14.1083L79.7804 10.1794L80.4127 7.85779H84.3574C86.8971 7.85779 88.0668 8.69969 87.6664 10.1794L86.609 14.1083C86.191 15.6317 84.1818 16.2331 82.0952 16.2331M83.3352 14.1119L84.4558 9.99353C84.5401 9.68738 84.4452 9.41039 83.9289 9.41039H83.2509L81.9758 14.1229C81.8985 14.4181 81.9899 14.6878 82.5062 14.6878C83.0226 14.6878 83.2509 14.4181 83.3352 14.1156V14.1119Z" fill="white"/>
<path fill-rule="evenodd" clip-rule="evenodd" d="M93.4268 7.85779H93.4163H93.4058C90.8837 7.87237 89.2608 8.63409 88.8639 10.0992L87.7785 14.1484C87.378 15.5734 89.0465 16.2367 91.1436 16.2367H91.1541H91.1647C93.2617 16.2367 95.2886 15.5734 95.6609 14.1484L96.7639 10.0992C97.1573 8.63044 95.9454 7.86872 93.4339 7.85779M91.5722 14.6841C91.0804 14.6732 90.9926 14.3998 91.0733 14.1046L92.1834 9.98988C92.2606 9.68738 92.496 9.42497 92.9983 9.41768C93.4971 9.42497 93.5849 9.69102 93.5006 9.99353L92.3871 14.1083C92.3063 14.4071 92.071 14.6768 91.5722 14.6878V14.6841Z" fill="white"/>
<path fill-rule="evenodd" clip-rule="evenodd" d="M180.552 25.2534H180.949V24.4006L181.297 24.4407L181.637 25.2534H182.084L181.69 24.4115C181.715 24.4043 181.739 24.3933 181.767 24.3824C181.796 24.3678 181.824 24.3496 181.855 24.3241C181.883 24.2986 181.911 24.2621 181.936 24.2184C181.961 24.1746 181.982 24.1163 181.996 24.0434C182.01 23.9705 182.017 23.8831 182.02 23.7774C182.02 23.6498 182.006 23.5441 181.978 23.4567C181.95 23.3692 181.911 23.2999 181.859 23.2526C181.806 23.2015 181.746 23.1651 181.68 23.1432C181.609 23.1213 181.536 23.1104 181.455 23.1104H180.552V25.2571V25.2534ZM182.312 23.0667C182.038 22.7824 181.655 22.6038 181.237 22.6038C180.819 22.6038 180.436 22.7788 180.162 23.0667C179.888 23.351 179.716 23.7446 179.716 24.1819C179.716 24.6193 179.885 25.0129 180.162 25.2972C180.436 25.5815 180.819 25.76 181.237 25.76C181.655 25.76 182.038 25.5851 182.312 25.2972C182.586 25.0129 182.758 24.6193 182.758 24.1819C182.758 23.7446 182.589 23.351 182.312 23.0667ZM181.237 22.3487C181.725 22.3487 182.164 22.5528 182.484 22.8845C182.804 23.2161 183 23.6753 183 24.1783C183 24.6812 182.804 25.1405 182.484 25.4721C182.164 25.8038 181.722 26.0079 181.237 26.0079C180.752 26.0079 180.31 25.8038 179.99 25.4721C179.67 25.1405 179.474 24.6812 179.474 24.1783C179.474 23.6717 179.67 23.2161 179.99 22.8845C180.31 22.5528 180.752 22.3487 181.237 22.3487ZM180.952 24.0762V23.4712H181.423C181.465 23.4712 181.5 23.4785 181.532 23.4967C181.564 23.515 181.585 23.5441 181.602 23.5879C181.62 23.6316 181.627 23.6936 181.627 23.7737C181.627 23.8393 181.623 23.8904 181.613 23.9305C181.606 23.9705 181.592 23.9997 181.574 24.0216C181.557 24.0434 181.536 24.058 181.511 24.0653C181.486 24.0726 181.455 24.0762 181.423 24.0762H180.952Z" fill="white"/>
<path fill-rule="evenodd" clip-rule="evenodd" d="M96.7423 36.9891H103.638C104.66 33.2096 105.566 29.8748 106.581 26.1027L106.588 26.0808C107.21 23.4785 104.302 22.3524 100.701 22.3524H95.2986L94.5574 25.0712H99.9634C100.634 25.0712 101.045 25.3592 100.863 26.0553C100.153 28.4279 92.3234 27.9432 91.3117 31.6279L91.0272 32.6812C90.1982 35.7681 93.1032 36.9927 96.7458 36.9927M96.514 33.4392L96.8056 32.3531L96.9355 31.8538C97.2552 30.7058 98.604 30.3851 99.8651 29.8347L99.1871 32.3386V32.3531L98.6673 34.2957H97.4695C96.6756 34.2957 96.3594 33.9896 96.514 33.4392Z" fill="white"/>
<path fill-rule="evenodd" clip-rule="evenodd" d="M135.997 36.9745H142.893C143.915 33.195 144.821 29.8602 145.836 26.0881L145.843 26.0662C146.465 23.4639 143.556 22.3378 139.956 22.3378H134.553L133.812 25.0566H139.218C139.889 25.0566 140.3 25.3446 140.118 26.0407C139.408 28.4133 131.578 27.9286 130.567 31.6133L130.282 32.6666C129.453 35.7535 132.358 36.9781 136.001 36.9781M135.769 33.4246L136.06 32.3386L136.19 31.8392C136.51 30.6912 137.859 30.3705 139.12 29.8201L138.442 32.324V32.3386L137.922 34.2811H136.724C135.93 34.2811 135.614 33.975 135.769 33.4246Z" fill="white"/>
</g>
<defs>
<clipPath id="clip0_7979_317">
<rect width="183" height="37" fill="white"/>
</clipPath>
</defs>
</svg>
