<svg width="87" height="88" viewBox="0 0 87 88" fill="none" xmlns="http://www.w3.org/2000/svg">
<g clip-path="url(#clip0_9404_17)">
<path d="M86.8964 75.538C86.6624 74.3088 84.9532 74.8768 84.9532 75.3566V85.7205C84.9532 85.7396 84.7074 85.9878 84.6885 85.9878H76.7265C76.7076 85.9878 76.4617 85.7396 76.4617 85.7205V70.5327C76.4617 70.2105 75.4405 69.9431 75.1355 69.9073C72.4997 69.6042 67.0625 69.7068 64.3344 69.9002C63.9822 69.924 62.6607 70.0863 62.6607 70.5327V85.9878H54.4316C54.4127 85.9878 54.1668 85.7396 54.1668 85.7205V35.2472H84.958V71.4278C84.958 71.941 86.712 72.6403 86.913 71.0793V34.0777C87.0359 33.7244 86.322 33.1038 86.1069 33.1038H77.7005V27.2965C77.7005 26.9743 76.6792 26.7069 76.3743 26.6711C73.1498 26.2988 66.4313 26.4277 63.0957 26.664C62.7434 26.6878 61.422 26.8502 61.422 27.2965V33.1038H53.0156C52.8004 33.1038 52.0865 33.7244 52.2094 34.0777V86.8018L52.4364 87.735L86.5064 87.8377C86.8964 87.6706 86.8775 87.1646 86.9083 86.8018C87.2061 83.2023 86.6742 79.1876 86.8964 75.5428V75.538ZM63.3652 28.8146H75.7525V33.1014H63.3652V28.8146ZM74.5114 85.9878H64.8663C64.8474 85.9878 64.6015 85.7396 64.6015 85.7205V72.0531H74.5114V85.9902V85.9878Z" fill="white"/>
<path d="M48.8072 51.1798L36.8193 56.863V49.984C36.8193 49.2774 35.564 48.929 35.0014 49.3992L19.3021 56.8606V49.8026C19.3021 49.5257 18.2572 48.8932 17.8813 49.2583L0 57.8774L0.056736 87.7327L0.981061 87.9618H48.9514C50.3627 88.3342 50.3603 85.9903 49.4738 85.9903H2.04959C2.03068 85.9903 1.78482 85.742 1.78482 85.7229V59.1902L17.1792 52.0439V58.5648C17.1792 59.2666 18.1012 59.849 18.7773 59.4623L34.6965 51.8648V58.7439C34.6965 59.2905 35.7697 59.8323 36.2945 59.4623L49.8355 52.9461C50.5518 52.1632 49.8355 50.8981 48.8072 51.1822V51.1798Z" fill="white"/>
<path d="M41.8733 16.8323C37.4006 17.145 32.4669 16.4552 28.0533 16.8371C26.7626 16.9493 26.9943 17.3789 26.7366 18.5437L25.1338 50.3539C25.6681 52.0939 27.3087 51.237 27.2425 49.6068L27.973 34.1755H41.9513L42.7007 49.9433C42.8851 50.6188 42.9749 51.2012 43.8141 51.1583C45.0174 51.0986 44.8212 49.6378 44.7905 48.726C44.4831 39.7036 43.7905 30.5737 43.1924 21.5751C43.1002 20.2074 43.6794 16.892 41.8733 16.83V16.8323ZM28.8571 18.8087H40.8024C40.9017 18.8087 41.0743 19.1094 41.0672 19.255L41.4194 24.3487H28.5025L28.8571 18.8111V18.8087ZM28.1503 32.0297L28.5049 26.4921H41.4218L41.7764 32.0297H28.1503Z" fill="white"/>
<path d="M5.67413 52.304C5.90343 47.1793 6.28877 42.0451 6.57008 36.9491C6.59609 36.4932 6.39278 34.1732 6.82776 34.1732H20.5413L21.1063 44.2339C23.416 46.3463 23.0708 42.544 23.0259 41.045C22.955 38.5603 22.6146 36.0325 22.4893 33.5454C22.2363 28.5496 22.2812 23.1099 21.7801 18.1834C21.6761 17.1618 21.4609 16.9255 20.461 16.8348C16.0119 16.429 10.9766 17.1618 6.4637 16.8348C5.35262 16.8777 5.38808 18.5151 5.32425 19.4365C4.5725 30.3135 4.4283 41.2049 3.61035 52.1083C3.69782 53.433 5.30534 53.4951 5.67176 52.3064L5.67413 52.304ZM7.44713 19.2551C7.44003 19.1095 7.61261 18.8087 7.71189 18.8087H19.6572L20.0118 24.3463H7.26983L7.44713 19.2551ZM7.09253 26.4897H20.1867L20.364 32.0273H6.73793L7.09253 26.4897Z" fill="white"/>
<path d="M53.8617 10.4617C54.5591 10.7482 55.4125 9.64542 56.5377 10.7816C57.3439 11.5979 56.8758 13.3952 58.3013 13.2687C60.1972 13.1016 58.6842 9.81728 57.611 8.98187C56.3533 8.00086 55.4432 8.55462 54.6891 8.17987C54.0744 7.87435 53.5496 6.69045 52.136 6.29184C51.5095 6.11521 49.8783 6.17488 49.7625 6.0985C49.6325 6.01257 48.8642 3.90256 48.3961 3.27958C45.4411 -0.658796 39.8006 -1.08366 36.1955 2.18638C35.8787 2.47281 35.3492 3.35596 35.1057 3.41802C34.8126 3.49201 33.6164 3.18888 32.8788 3.30822C28.633 3.98849 27.3541 9.89128 30.99 12.4548C31.8315 13.0491 34.7204 14.0206 34.8764 12.4596C35.0135 11.099 33.0774 11.3449 32.1578 10.741C29.7323 9.14179 31.0089 5.07214 34.2546 5.40869C34.874 5.47313 35.3326 5.88845 35.9402 5.69512C36.2688 5.59009 37.2451 4.08396 37.7865 3.61852C40.9353 0.923715 45.7177 1.87131 47.408 5.70466C47.6964 6.35629 47.9611 8.06291 48.3276 8.35173C48.9729 8.86252 50.1053 7.99847 51.0131 8.12497C52.8972 8.38753 53.0579 10.1347 53.857 10.4641L53.8617 10.4617Z" fill="white"/>
<path d="M8.42061 12.376C9.25038 12.9942 11.9713 13.9848 12.3709 12.6052C12.8035 11.1014 10.5766 11.3282 9.68772 10.741C7.62867 9.37809 8.33787 5.81446 10.7326 5.42301C11.7609 5.25593 12.9642 5.86936 13.4725 5.69512C13.8838 5.55668 14.7609 4.10545 15.3188 3.61852C18.3163 1.0001 22.9569 1.74003 24.7653 5.34663C25.0797 5.97438 25.5714 8.07962 25.7157 8.22761C26.0301 8.55223 27.1199 8.58087 27.3563 8.09156C27.9638 6.83605 26.5832 4.11261 25.7653 3.08624C22.8103 -0.625378 17.3471 -1.02638 13.8176 2.10284C13.5481 2.34153 12.7396 3.39415 12.6545 3.41563C12.4678 3.46098 11.2314 3.22707 10.5908 3.313C6.23864 3.89779 4.86042 9.72181 8.42298 12.3784L8.42061 12.376Z" fill="white"/>
<path d="M57.6908 61.9661C57.7878 62.718 58.1684 62.8851 58.8397 62.9495C60.6009 63.1214 65.3006 63.1715 67.0003 62.9495C67.7449 62.8517 67.9104 62.4674 67.9742 61.7895C68.1445 59.9993 68.1917 55.2804 67.9742 53.5499C67.9033 52.9914 67.5818 52.6047 67.0003 52.5665L58.3575 52.6143C57.9343 52.8172 57.7523 53.0845 57.6908 53.5499C57.4899 55.0966 57.4923 60.417 57.6908 61.9661ZM59.8232 54.7195H65.8396V60.7942H59.8232V54.7195Z" fill="white"/>
<path d="M72.4686 62.9471C74.2393 63.1118 78.7498 63.1715 80.4495 62.9471C81.1942 62.8492 81.3596 62.4649 81.4235 61.7871C81.5937 59.9969 81.641 55.278 81.4235 53.5475C81.3526 52.989 81.0311 52.6023 80.4495 52.5641L71.8044 52.6071C71.3528 52.8171 71.2015 53.2611 71.1472 53.7289C70.9509 55.4236 70.9509 60.0828 71.1472 61.7775C71.2559 62.7084 71.6152 62.8659 72.4686 62.9447V62.9471ZM73.2724 54.7195H79.4661V60.7941H73.2724V54.7195Z" fill="white"/>
<path d="M72.1139 49.0125C73.5961 48.695 80.187 49.4373 81.0616 48.917C81.3619 48.738 81.3926 48.1747 81.421 47.8524C81.5817 46.0288 81.6503 41.3577 81.421 39.6153C81.3311 38.9278 80.9269 38.7154 80.265 38.6366C77.7213 38.3383 74.589 38.8347 71.9815 38.6796C71.3858 38.83 71.2108 39.219 71.1447 39.799C70.9555 41.4317 70.9319 46.4274 71.1399 48.0314C71.2132 48.5971 71.5371 48.979 72.1139 49.0148V49.0125ZM73.2723 40.7848H79.4659V47.0385H73.2723V40.7848Z" fill="white"/>
<path d="M29.6564 62.2216C28.7274 62.1118 24.8315 62.076 24.0278 62.2621C23.432 62.4006 23.2571 62.8111 23.1909 63.3816C23.0562 64.5416 23.0562 67.5897 23.1909 68.7473C23.2476 69.2414 23.3848 69.6615 23.8906 69.8262C24.5006 70.0243 28.8338 70.0052 29.6564 69.9074C30.1458 69.8501 30.5619 69.7116 30.725 69.2009C30.9236 68.5803 30.9023 64.2146 30.8054 63.3792C30.7155 62.5939 30.4389 62.3099 29.6541 62.2168L29.6564 62.2216ZM28.6801 67.7639H25.3185V64.3698H28.6801V67.7639Z" fill="white"/>
<path d="M47.611 62.317C47.254 62.1547 42.1005 62.1356 41.5473 62.2621C40.9516 62.4005 40.7766 62.8111 40.7104 63.3815C40.5757 64.5463 40.5757 67.5825 40.7104 68.7473C40.8003 69.5326 41.0769 69.8166 41.8617 69.9097C42.9515 70.0386 46.1169 70.0577 47.1831 69.9145C47.6346 69.8548 48.0199 69.5779 48.1901 69.1435C48.4265 68.542 48.4265 64.3936 48.3296 63.5582C48.28 63.1237 48.0152 62.496 47.6157 62.3146L47.611 62.317ZM46.1996 67.7639H42.838V64.3697H46.1996V67.7639Z" fill="white"/>
<path d="M12.1392 62.2191C11.3591 62.1284 7.09443 62.0926 6.51052 62.2621C6.10628 62.3791 5.89588 62.8087 5.84387 63.1978C5.70676 64.2623 5.70203 67.8737 5.84387 68.9335C5.90534 69.3989 6.08736 69.683 6.55307 69.8262C7.22209 70.0314 11.2858 70.01 12.1392 69.9121C12.7893 69.8357 13.203 69.6257 13.2952 68.9335C13.4347 67.8713 13.4347 64.2599 13.2952 63.1978C13.2054 62.5103 12.8011 62.2979 12.1392 62.2191ZM11.3402 67.7639H7.80127V64.3697H11.3402V67.7639Z" fill="white"/>
</g>
<defs>
<clipPath id="clip0_9404_17">
<rect width="87" height="88" fill="white"/>
</clipPath>
</defs>
</svg>
