<svg width="92" height="93" viewBox="0 0 92 93" fill="none" xmlns="http://www.w3.org/2000/svg">
<path d="M91.996 49.1419C91.5984 47.7897 90.2325 47.3426 89.3451 48.5534C88.8778 52.0284 88.4262 55.4293 87.3793 58.7852C84.1218 69.2416 76.6475 78.3907 67.0682 83.6718C65.3811 84.6017 63.3749 85.6642 61.5035 86.0865C64.2241 82.5396 67.3648 79.2938 70.1078 75.7716C71.2401 74.3205 72.5588 72.829 72.7835 70.9151C72.925 69.7134 72.6464 68.4532 72.8891 67.2537C75.4074 65.9374 78.5908 65.3556 79.6534 62.359C81.0328 58.4685 78.2875 55.9369 74.4459 56.467C72.141 52.5091 70.9952 46.5587 65.5451 46.087C63.0604 45.8713 56.3544 45.7837 54.3213 46.8934C52.4274 47.9267 52.1174 49.3755 49.5406 48.0974C47.33 47.0012 44.9958 45.1345 42.8481 43.8497V39.0965H46.7054C46.9099 39.0965 47.9321 40.7026 48.2219 40.9879C49.6529 42.3918 51.4973 42.147 52.569 40.478L58.0011 30.3068C58.72 29.6689 62.2044 30.8572 63.5524 29.0422C64.5386 27.7169 63.6153 23.4197 64.1837 23.0356C64.3566 22.9188 64.8419 22.9615 65.1924 22.7885C67.1177 21.8361 66.9784 19.5269 65.4327 18.2173C63.5748 16.6427 59.7332 14.3515 57.5406 13.015C53.69 10.6698 50.8728 9.49054 46.1618 10.0364C44.5195 10.2273 44.3892 12.5208 46.3415 12.7342C47.5164 12.8622 48.8689 12.6421 50.0888 12.7521C52.879 13.006 55.0716 14.6278 57.3609 16.0632C59.5063 17.4064 61.5934 18.8822 63.6535 20.3536C60.3892 21.1555 61.517 24.9719 61.3215 27.4361H57.2867C56.7228 27.4361 55.7321 28.8715 55.4378 29.3544C53.544 32.4588 52.1488 36.0596 50.1112 39.0943C49.4417 38.2901 48.6352 36.7042 47.5636 36.4414C46.3145 36.1359 43.3513 36.2168 42.0528 36.4167C41.2081 36.5448 40.5207 37.2434 40.2488 38.0206C39.8153 39.265 39.8153 43.5891 40.2488 44.8335C40.5926 45.8219 41.2463 46.0892 42.0371 46.6328C43.7198 47.7874 48.8981 51.0962 50.6706 51.2736C53.9124 51.5949 54.683 49.0835 56.7655 48.7982C58.5178 48.5579 63.5591 48.5848 65.3608 48.7803C69.2811 49.2048 70.3954 55.6112 72.5251 58.2955C74.1067 59.987 77.4338 58.0934 77.2946 60.7013C77.1575 63.2643 73.3608 63.7764 71.5681 64.8524C68.9508 66.4226 70.9346 69.8639 69.5484 72.1596L56.6105 87.8296L53.2519 88.4159V84.0222C53.2519 82.6025 55.8377 77.7865 56.1073 75.7559C56.2533 74.6574 56.2488 71.8608 56.123 70.7489C55.6602 66.6225 48.0287 68.3499 47.512 63.7562C47.2446 61.3797 47.941 58.8638 47.3974 56.5165C46.7436 53.6951 44.6251 51.6914 42.0753 50.5391C40.7049 49.9214 32.642 47.2393 32.2578 46.7249C31.2559 43.6924 31.02 40.2466 30.1011 37.2231C29.7754 36.1517 29.3216 35.0106 28.0433 34.7972C26.9335 34.6107 21.7709 35.0195 21.3553 34.759L17.9226 26.9689C17.8057 26.0456 18.8055 24.8124 19.0795 23.842C20.0995 20.2278 18.3382 17.6401 15.7704 15.3286L15.8512 15.2388C16.8532 14.356 20.7263 10.5418 21.7911 10.3958C22.7414 10.2655 26.4393 12.523 27.8905 12.714C30.4359 13.0464 37.0902 12.9813 39.7209 12.7387C41.4687 12.5769 41.8574 10.9956 40.3926 10.0768L28.4072 10.0454L24.7364 8.60326C24.5477 8.35617 29.6945 5.99757 30.1191 5.8291C41.4193 1.31857 54.6583 1.90709 65.5159 7.37679C66.1494 7.69576 70.4044 10.1173 70.5616 10.4025C70.7144 10.6766 70.5998 12.988 70.7032 13.6709C70.9638 15.3893 72.0151 17.2312 72.0915 18.9294C72.1657 20.5737 71.4198 21.8069 71.7523 23.741C72.8262 29.9901 79.8174 30.5629 84.8205 31.6569C85.5282 31.8118 86.2201 31.9579 86.9503 31.9466C88.3341 35.6395 88.8239 39.5615 89.3473 43.4498C90.1516 44.683 91.2681 44.2944 91.996 43.223V42.5064C91.2681 20.6658 71.8781 0.849095 49.6664 0H46.2584C45.5934 0.298756 44.2679 0.303248 43.567 0H43.0278C22.2764 0.458242 4.49265 17.2941 0.731911 37.3332C-0.265561 42.6524 -0.258821 50.5391 0.846485 55.8336C4.43424 73.0244 18.7897 87.5646 36.0028 91.1496C41.2688 92.2458 49.1856 92.2638 54.4875 91.3248C74.4279 87.7937 91.54 70.3828 91.996 49.681C92.0095 49.5036 91.9848 49.3194 91.996 49.1419ZM85.8989 29.0534C82.201 28.1235 75.5647 28.1459 74.4706 23.5365C74.0685 21.8451 74.8773 20.4569 74.7762 18.7452C74.6504 16.6045 73.408 14.6839 73.3474 12.5545C78.8559 16.8628 83.0345 22.6987 85.9011 29.0534H85.8989ZM50.5628 88.9595C34.1584 90.6128 18.1562 82.6677 9.48449 68.7856C0.0489575 53.6794 0.779088 31.5737 13.0812 18.2084C13.3081 17.9613 13.7799 17.2851 14.1506 17.4738C14.2809 17.5412 15.9905 19.482 16.0984 19.664C17.8686 22.6403 15.1099 24.4261 15.1189 27.2654L19.2772 36.3943C20.8184 38.2969 25.1947 37.1715 27.4075 37.5017C28.2927 40.6218 28.6004 44.2181 29.5507 47.2842C29.8855 48.3647 30.2112 48.8477 31.2469 49.3553C34.6369 51.0153 42.0843 52.3496 44.0006 55.4338C45.9641 58.5898 44.0163 62.0962 45.1508 65.405C46.4134 69.0867 50.2303 69.5898 53.4092 70.868C53.335 72.346 53.6158 74.1116 53.3912 75.5537C53.0812 77.5372 50.565 82.142 50.565 83.6673V88.9573L50.5628 88.9595Z" fill="#FEFEFE"/>
</svg>
