<svg width="67" height="96" viewBox="0 0 67 96" fill="none" xmlns="http://www.w3.org/2000/svg">
<path d="M62.1007 65.497L51.2723 60.8039C50.9815 60.5799 51.2074 57.017 51.1918 56.3399C56.097 53.6417 58.9898 49.0397 60.1999 43.6407C60.3427 43 60.2389 41.8046 60.5868 41.2993C60.7348 41.0806 61.9112 40.518 62.3344 40.1274C64.7286 37.9214 64.6481 34.0538 61.9891 32.0797C61.7164 31.8765 61.1269 31.7489 61.0958 31.7125C60.9633 31.5588 61.1919 29.681 61.2698 29.6055C61.558 29.3242 64.1625 30.1316 64.6585 29.0065C64.8247 28.6314 64.8585 23.3783 64.7208 22.9095C64.469 22.0527 62.9291 22.4694 62.2332 22.3834C61.9865 14.7082 57.5253 7.30123 50.6439 3.88683C50.2336 3.68369 48.1302 2.98831 48.0471 2.87632C47.9407 2.73568 48.9768 0.568799 47.32 0.201575C45.8996 -0.11356 39.3195 -0.00156965 37.6342 0.149487C35.1855 0.370863 36.7046 2.30595 36.2969 2.89715C36.1826 3.06123 33.282 4.20197 32.6822 4.54314C26.3435 8.14766 22.5809 15.1536 22.1888 22.3834C21.4669 22.4538 19.9841 22.0969 19.7478 22.9538C19.5842 23.5502 19.5453 28.3215 19.7037 28.8763C20.0802 30.1941 22.8977 29.3294 23.1625 29.5977C23.2274 29.6628 23.3443 31.3452 23.3235 31.4338C23.2664 31.6812 22.0407 32.2151 21.7032 32.525C19.3012 34.7414 20.1711 38.7731 22.5886 40.6014C22.9029 40.8384 23.7078 41.0597 23.8429 41.2915C24.0065 41.5728 24.2246 43.9819 24.383 44.6486C25.5515 49.5423 28.7897 53.9568 33.2249 56.3451C33.334 56.5352 33.3496 60.5695 33.2327 60.757C33.0951 60.9783 31.7889 61.3456 31.3838 61.231C29.9582 60.8221 26.1851 58.4469 24.7284 57.5561C22.5757 56.2409 20.5138 54.7902 18.4832 53.2927C18.0573 53.1156 17.5562 53.1026 17.1381 53.2927C14.4479 55.3137 11.633 57.2071 8.70905 58.874C5.98246 60.4288 3.04035 61.6737 0.347526 63.1739C0.235866 63.4369 0.235866 63.7208 0.209898 63.9995C-0.114695 67.7681 -0.151049 77.1648 0.747425 80.6339C2.38597 86.9809 8.08842 92.1324 13.8896 94.7473C15.0217 95.2577 17.0887 96.2422 18.2599 95.9453C22.3783 94.9035 26.6785 91.7756 29.8647 89.0644H65.0506C65.5544 89.054 66.4944 88.8873 66.658 88.3404L66.6944 72.5889C66.2192 69.6901 64.4923 67.143 62.0929 65.5048L62.1007 65.497ZM54.4585 64.6818L56.014 65.2678V72.2867C55.6997 72.305 54.4585 72.3701 54.4585 71.995V64.6844V64.6818ZM52.1266 63.8041V72.2841H35.6035L35.4114 63.1218C39.6856 64.9266 43.9027 64.7417 48.2783 63.4552C48.7353 63.3197 49.5974 62.804 49.922 62.778C50.1921 62.7546 52.124 63.6166 52.124 63.8041H52.1266ZM35.6035 60.4913V57.6655C38.556 58.4442 41.5501 58.999 44.6194 58.6161C46.0476 58.439 47.3928 57.8218 48.821 57.6655V60.7856C46.5073 61.5904 44.0092 62.278 41.5241 62.1581C40.7139 62.1191 35.6035 61.2127 35.6035 60.4939V60.4913ZM35.4399 5.93651C35.6633 5.2828 38.0185 5.06663 38.4677 4.58742C38.917 4.10821 38.6054 2.49347 38.7118 2.49347C39.6571 2.49347 45.4608 2.24605 45.7101 2.49347C45.7698 2.55337 45.6555 3.6342 45.7153 3.95194C45.9334 5.12393 48.2938 5.19165 49.1767 5.84015C49.4961 9.91867 47.9277 14.2316 44.3753 16.4584C42.5576 17.5965 42.2408 17.547 40.4049 16.4922C38.0601 15.1457 35.9177 12.2288 35.4971 9.5228C35.3958 8.86388 35.266 6.44958 35.4399 5.93651ZM24.5336 21.9094C25.0971 16.099 27.9535 10.2963 32.9782 7.1684C32.9107 11.9032 35.3283 16.3047 39.4311 18.6357C41.4228 19.766 42.2174 20.1957 44.3546 19.167C49.0001 16.9298 51.3554 12.1949 51.6358 7.17361C56.619 10.6271 59.626 16.2943 59.8987 22.3782H24.8167C24.692 22.3418 24.5025 22.0787 24.5336 21.9094ZM21.9966 27.2511V24.717H62.4279V27.2511C48.9794 27.2251 35.4763 27.2641 21.9966 27.2511ZM57.9589 33.098L56.9851 29.5899H58.9301C58.5354 30.7488 59.2573 32.4365 57.9615 33.098H57.9589ZM27.0525 29.5899L26.7616 32.9027C25.2763 32.4495 25.5801 30.8843 25.497 29.5899H27.0551H27.0525ZM27.4056 46.4899C26.476 44.1642 26.611 42.7161 26.263 40.4216C26.0423 38.9684 24.0272 39.2418 23.1236 37.7209C22.4796 36.6374 22.3991 34.033 23.8792 33.908C24.2402 33.8767 26.4993 35.8978 27.9198 35.6321C29.5661 35.3248 29.0545 30.9259 29.3843 29.5899L54.4351 29.6159C54.7026 29.7878 55.7751 34.7961 56.4892 35.6477C57.9174 37.3458 59.5689 34.7805 60.5842 33.8846C62.2072 35.0123 62.0124 37.5438 60.4752 38.6428C59.8961 39.0569 58.6419 39.2445 58.3666 39.6455C58.0836 40.0544 58.0498 42.4896 57.9096 43.2813C55.17 58.8896 33.2639 61.119 27.4108 46.4873L27.4056 46.4899ZM22.1965 91.6871C21.3136 92.1559 18.5793 93.5414 17.7457 93.6326C17.0031 93.7159 13.8662 92.1376 13.0508 91.6871C9.69841 89.8353 5.86042 86.5433 4.13618 83.0821C1.37584 77.5321 2.95985 70.5418 2.58852 64.5178C8.01571 62.2571 12.9911 59.1032 17.8158 55.7773C21.4279 58.2489 25.1075 60.6059 28.987 62.6374C29.7037 63.0124 32.8068 64.2781 33.0769 64.5803C33.2691 64.7938 33.2483 64.9006 33.2794 65.1558C33.5807 67.6639 33.4015 72.4717 33.2794 75.1178C32.9029 83.1211 29.1065 88.02 22.1939 91.6845L22.1965 91.6871ZM57.9563 86.71H31.911C34.5051 83.1394 35.6139 79.0374 35.6035 74.6229H57.9563V86.71ZM64.3703 86.71H60.579C60.5583 86.71 60.2882 86.4392 60.2882 86.4183V72.9665C60.2882 71.9924 58.3432 72.4612 58.3432 71.9924V66.4372C60.6102 66.992 62.685 68.6067 63.6951 70.7189C63.8431 71.0262 64.3677 72.3623 64.3677 72.5784V86.7126L64.3703 86.71Z" fill="white"/>
</svg>
