<svg width="11" height="11" viewBox="0 0 11 11" fill="none" xmlns="http://www.w3.org/2000/svg">
<path d="M5.44674 0.000574319L5.73419 0.0356003C7.94934 0.0447875 10.6908 -0.445002 10.9546 2.55116C10.8366 4.40466 11.109 6.44306 10.947 8.27475C10.6879 11.2123 7.65958 10.7409 5.48318 10.7403C4.58728 10.7403 3.53928 10.7702 2.66015 10.7151C1.08815 10.6175 0.190516 9.75732 0.0412967 8.19551C0.144825 6.35406 -0.0905716 4.37538 0.0412967 2.55058C0.265126 -0.549506 3.22696 0.119433 5.44674 0V0.000574319ZM8.86259 1.20639C8.69428 1.24141 8.456 1.43836 8.38948 1.59627C8.11187 2.25659 8.82904 2.86524 9.4346 2.46388C10.0749 2.03897 9.64455 1.04332 8.86259 1.20639ZM5.01181 1.89715C2.35246 2.19515 1.05865 5.47094 2.72782 7.54724C4.47161 9.71713 8.02453 9.1102 8.85334 6.45052C9.63413 3.9453 7.60811 1.60603 5.01181 1.89715Z" fill="#003E6B"/>
</svg>
